<mxfile host="app.diagrams.net" modified="2022-05-29T15:50:06.491Z" agent="5.0 (Windows NT 10.0; Win64; x64) AppleWebKit/537.36 (KHTML, like Gecko) Chrome/101.0.4951.67 Safari/537.36" etag="CBNApOE58C5iY6e3dE4L" version="18.0.3" type="github">
  <diagram id="C5RBs43oDa-KdzZeNtuy" name="Page-1">
    <mxGraphModel dx="1021" dy="567" grid="1" gridSize="10" guides="1" tooltips="1" connect="1" arrows="1" fold="1" page="1" pageScale="1" pageWidth="827" pageHeight="1169" math="0" shadow="0">
      <root>
        <mxCell id="WIyWlLk6GJQsqaUBKTNV-0" />
        <mxCell id="WIyWlLk6GJQsqaUBKTNV-1" parent="WIyWlLk6GJQsqaUBKTNV-0" />
        <mxCell id="B4pCINXgDuBR9k6JphO--12" style="edgeStyle=orthogonalEdgeStyle;rounded=0;orthogonalLoop=1;jettySize=auto;html=1;fontSize=15;" edge="1" parent="WIyWlLk6GJQsqaUBKTNV-1" source="B4pCINXgDuBR9k6JphO--10" target="B4pCINXgDuBR9k6JphO--11">
          <mxGeometry relative="1" as="geometry" />
        </mxCell>
        <mxCell id="B4pCINXgDuBR9k6JphO--10" value="start" style="strokeWidth=2;html=1;shape=mxgraph.flowchart.terminator;whiteSpace=wrap;fontSize=20;" vertex="1" parent="WIyWlLk6GJQsqaUBKTNV-1">
          <mxGeometry x="95" y="30" width="100" height="50" as="geometry" />
        </mxCell>
        <mxCell id="B4pCINXgDuBR9k6JphO--14" style="edgeStyle=orthogonalEdgeStyle;rounded=0;orthogonalLoop=1;jettySize=auto;html=1;fontSize=15;" edge="1" parent="WIyWlLk6GJQsqaUBKTNV-1" source="B4pCINXgDuBR9k6JphO--11" target="B4pCINXgDuBR9k6JphO--13">
          <mxGeometry relative="1" as="geometry" />
        </mxCell>
        <mxCell id="B4pCINXgDuBR9k6JphO--11" value="&lt;font style=&quot;font-size: 15px;&quot;&gt;Get number from milliseconds&lt;br&gt;&amp;nbsp;and * 6&lt;/font&gt;" style="shape=parallelogram;html=1;strokeWidth=2;perimeter=parallelogramPerimeter;whiteSpace=wrap;rounded=1;arcSize=12;size=0.23;fontSize=20;" vertex="1" parent="WIyWlLk6GJQsqaUBKTNV-1">
          <mxGeometry x="60" y="120" width="170" height="90" as="geometry" />
        </mxCell>
        <mxCell id="B4pCINXgDuBR9k6JphO--16" style="edgeStyle=orthogonalEdgeStyle;rounded=0;orthogonalLoop=1;jettySize=auto;html=1;entryX=0;entryY=0.5;entryDx=0;entryDy=0;entryPerimeter=0;fontSize=15;" edge="1" parent="WIyWlLk6GJQsqaUBKTNV-1" source="B4pCINXgDuBR9k6JphO--13" target="B4pCINXgDuBR9k6JphO--15">
          <mxGeometry relative="1" as="geometry" />
        </mxCell>
        <mxCell id="B4pCINXgDuBR9k6JphO--13" value="use slider to get a number from&lt;br&gt;&amp;nbsp;1-6 from user" style="shape=parallelogram;html=1;strokeWidth=2;perimeter=parallelogramPerimeter;whiteSpace=wrap;rounded=1;arcSize=12;size=0.23;fontSize=15;" vertex="1" parent="WIyWlLk6GJQsqaUBKTNV-1">
          <mxGeometry x="60" y="250" width="170" height="100" as="geometry" />
        </mxCell>
        <mxCell id="B4pCINXgDuBR9k6JphO--21" style="edgeStyle=orthogonalEdgeStyle;rounded=0;orthogonalLoop=1;jettySize=auto;html=1;entryX=0;entryY=0.5;entryDx=0;entryDy=0;fontSize=15;" edge="1" parent="WIyWlLk6GJQsqaUBKTNV-1" source="B4pCINXgDuBR9k6JphO--15" target="B4pCINXgDuBR9k6JphO--18">
          <mxGeometry relative="1" as="geometry">
            <Array as="points">
              <mxPoint x="430" y="450" />
            </Array>
          </mxGeometry>
        </mxCell>
        <mxCell id="B4pCINXgDuBR9k6JphO--23" style="edgeStyle=orthogonalEdgeStyle;rounded=0;orthogonalLoop=1;jettySize=auto;html=1;entryX=1;entryY=0.5;entryDx=0;entryDy=0;fontSize=15;" edge="1" parent="WIyWlLk6GJQsqaUBKTNV-1" source="B4pCINXgDuBR9k6JphO--15" target="B4pCINXgDuBR9k6JphO--17">
          <mxGeometry relative="1" as="geometry">
            <Array as="points">
              <mxPoint x="430" y="450" />
              <mxPoint x="312" y="450" />
            </Array>
          </mxGeometry>
        </mxCell>
        <mxCell id="B4pCINXgDuBR9k6JphO--15" value="If random number&lt;br&gt;&amp;nbsp;and user&#39;s number&lt;br&gt;&amp;nbsp;are ==" style="strokeWidth=2;html=1;shape=mxgraph.flowchart.decision;whiteSpace=wrap;fontSize=15;" vertex="1" parent="WIyWlLk6GJQsqaUBKTNV-1">
          <mxGeometry x="320" y="210" width="220" height="180" as="geometry" />
        </mxCell>
        <mxCell id="B4pCINXgDuBR9k6JphO--25" style="edgeStyle=orthogonalEdgeStyle;rounded=0;orthogonalLoop=1;jettySize=auto;html=1;entryX=0;entryY=0.5;entryDx=0;entryDy=0;entryPerimeter=0;fontSize=15;" edge="1" parent="WIyWlLk6GJQsqaUBKTNV-1" source="B4pCINXgDuBR9k6JphO--17" target="B4pCINXgDuBR9k6JphO--24">
          <mxGeometry relative="1" as="geometry">
            <Array as="points">
              <mxPoint x="250" y="620" />
            </Array>
          </mxGeometry>
        </mxCell>
        <mxCell id="B4pCINXgDuBR9k6JphO--17" value="Show answer &lt;br&gt;is Wrong&amp;nbsp;" style="shape=parallelogram;html=1;strokeWidth=2;perimeter=parallelogramPerimeter;whiteSpace=wrap;rounded=1;arcSize=12;size=0.23;fontSize=15;" vertex="1" parent="WIyWlLk6GJQsqaUBKTNV-1">
          <mxGeometry x="170" y="390" width="160" height="110" as="geometry" />
        </mxCell>
        <mxCell id="B4pCINXgDuBR9k6JphO--26" style="edgeStyle=orthogonalEdgeStyle;rounded=0;orthogonalLoop=1;jettySize=auto;html=1;entryX=1;entryY=0.5;entryDx=0;entryDy=0;entryPerimeter=0;fontSize=15;" edge="1" parent="WIyWlLk6GJQsqaUBKTNV-1" source="B4pCINXgDuBR9k6JphO--18" target="B4pCINXgDuBR9k6JphO--24">
          <mxGeometry relative="1" as="geometry">
            <Array as="points">
              <mxPoint x="570" y="620" />
            </Array>
          </mxGeometry>
        </mxCell>
        <mxCell id="B4pCINXgDuBR9k6JphO--18" value="Show Answer is correct" style="shape=parallelogram;html=1;strokeWidth=2;perimeter=parallelogramPerimeter;whiteSpace=wrap;rounded=1;arcSize=12;size=0.23;fontSize=15;" vertex="1" parent="WIyWlLk6GJQsqaUBKTNV-1">
          <mxGeometry x="500" y="400" width="150" height="100" as="geometry" />
        </mxCell>
        <mxCell id="B4pCINXgDuBR9k6JphO--24" value="stop" style="strokeWidth=2;html=1;shape=mxgraph.flowchart.terminator;whiteSpace=wrap;fontSize=15;" vertex="1" parent="WIyWlLk6GJQsqaUBKTNV-1">
          <mxGeometry x="364" y="590" width="100" height="60" as="geometry" />
        </mxCell>
      </root>
    </mxGraphModel>
  </diagram>
</mxfile>
